<?xml version="1.0" encoding="utf-8"?>
<!-- Generator: Adobe Illustrator 16.0.0, SVG Export Plug-In . SVG Version: 6.00 Build 0)  -->
<!DOCTYPE svg PUBLIC "-//W3C//DTD SVG 1.1//EN" "http://www.w3.org/Graphics/SVG/1.1/DTD/svg11.dtd">
<svg version="1.1" id="Layer_1" xmlns="http://www.w3.org/2000/svg" xmlns:xlink="http://www.w3.org/1999/xlink" x="0px" y="0px"
	 width="864px" height="864px" viewBox="0 0 864 864" enable-background="new 0 0 864 864" xml:space="preserve">
<g>
	<path fill-rule="evenodd" clip-rule="evenodd" fill="#009444" d="M801.168,631.121c-17.02-11.241-32.727-3.304-48.526,3.298
		C768.818,633.32,784.993,632.222,801.168,631.121z"/>
	<path fill-rule="evenodd" clip-rule="evenodd" fill="#009444" d="M857.308,657.329c-34.81-22.995-90.446-23.876-94.39-22.91
		s-43.938,7.835-53.304,0.384s-93.71-45.736-103.419-53.522s-8.156-34.462-8.22-37.023s17.62-43.473,25.459-47.894
		s7.472-45.725,14.03-56.834s26.285-34.334,37.304-51.377s31.498-51.151,34.846-56.937s25.572-33.051,43.027-60.966
		s10.276-81.481,10.276-81.481l-10.276-8.307l-0.001,0c2.931-0.269,7.13-1.733,12.656-2.559c-6.769-5.64-9.77-9.792-13.73-11.156
		c-16.974-5.846-33.918-12.763-51.472-15.681c-18.792-3.123-35.629-6.036-41.14-27.756c-0.628-2.477-2.979-4.642-4.848-6.659
		c-15.383-16.614-42.347-15.357-61.588,1.28c-14.679,12.688-30.697,23.85-46.356,35.368c-5.592,4.112-12.618,6.452-17.722,11.016
		c-24.35,21.774-48.383,43.909-72.188,66.277c-3.149,2.96-5.974,7.917-6.164,12.077c-0.65,14.168-9.855,20.566-21.073,25.242
		c-11.193,4.667-22.826,8.292-33.972,13.057c-12.282,5.25-24.006,17.195-36.93,1.239c-0.485-0.6-1.718-0.72-2.631-0.832
		c-10.778-1.312-42.466,17.072-46.669,27.4c-4.863,11.95-12.324,19.922-25.513,23.692c-13.658,3.905-26.435,10.802-39.798,15.858
		c-5.933,2.246-13.488,6.038-18.326,4.125c-10.004-3.957-14.774,1.766-18.623,7.578c-8.248,12.456-18.186,24.062-26.456,36.542
		c-3.507,1.739-7.107,3.323-10.594,4.534c2.625-4.409,5.331-8.756,8.226-12.951c-37.916,7.896-67.112,27.877-90.086,57.751
		c-13.648,17.748-28.595,34.505-42.082,52.37c-6.24,8.266-10.385,18.112-15.48,27.242c1.814,1.224,3.628,2.447,5.442,3.672
		c0.728-0.758,1.459-1.512,2.189-2.268l3.347,4.574c-1.792,2.46-3.538,4.984-5.227,7.597c4.072,4.289,8.793,10.8,14.946,15.393
		c5.67,4.23,11.014,5.344,15.787,3.609l8.916,7.051c-0.815,2.194-1.635,4.366-2.496,6.482c-5.972,14.685-4.505,23.965,3.933,27.622
		l-4.36,10.815c-19.051,5.548-25.793,22.207-15.593,42.28c8.211,16.163,19.301,29.852,35.729,38.49
		c14.87,7.819,29.558,16.006,44.624,23.424c45.873,22.585,92.977,41.996,144.474,46.665c25.197,2.284,51.32,6.988,75.213-6.288
		c21.075-11.709,40.985-15.373,65.162-5.919c26.759,10.463,31.702,12.292,34.74,38.177c2.806-4.315,6.052-9.138,6.002-13.926
		c-0.145-13.791-10.44-21.121-21.43-25.097c-25.898-9.37-50.247-24.949-79.928-20.766c-0.061-1.707-0.121-3.412-0.182-5.119
		c7.013-0.274,14.2-1.657,21-0.586c12.283,1.936,24.416,7.97,36.469,7.607c30.765-0.93,61.419-5.573,92.186-6.507
		c19.594-0.594,40.804-1.126,53.806,20.634c1.215-4.088,2.084-8.535,0.355-10.083c-6.984-6.254-14.497-16.062-22.304-16.537
		c-33.9-2.064-67.974-1.342-101.986-1.571c-12.874-0.088-25.75-0.015-38.624-0.015c-0.011-2.363-0.023-4.726-0.035-7.089
		c26.338,0,52.676,0,79.014,0c0.098-1.895,0.195-3.791,0.293-5.687c-5.626-1.372-11.477-4.504-16.842-3.824
		c-30.288,3.837-60.454,8.627-90.679,12.973c-3.173,0.457-6.457,0.095-9.689,0.179c-6.224,0.163-12.458,0.208-18.687,0.311
		l2.634-4.804c6.41-0.521,12.819-1.05,19.227-1.59c4.505-0.379,9.554-1.385,13.181-3.834c4.677-3.159,8.998-10.084,12.172-18.207
		c0,0,0.001,0,0.001,0c19.613,0.355,53.687-22.464,73.133-33.562s64.994-54.312,65.681-51.264s9.622,40.197,17.033,55.126
		s125.598,39.91,147.351,45.853s53.567-17.055,68.576-16.586c14.31,0.447,50.296,9.511,50.296,9.511
		c-0.292-15.083-37.727-36.373-22.933-35.137c15.382,1.285,52.438,16.447,52.438,16.447S864,661.75,857.308,657.329z
		 M749.234,179.807l-17.42-3.345C737.135,175.275,742.871,175.928,749.234,179.807z"/>
</g>
<g>
	<path fill-rule="evenodd" clip-rule="evenodd" fill="#FFFFFF" d="M628.797,218.141c2.297,12.31-14.112,25.787,3.776,34.417
		c13.789,6.652,32.8,0.715,39.84-11.053c6.725-11.242,8.628-21.991-5.452-30.445c11.067,1.283,18.053,13.081,15.009,23.962
		c-5.635,20.141-30.921,33.281-51.39,26.704C614.169,256.453,612.909,233.643,628.797,218.141z"/>
	<path fill-rule="evenodd" clip-rule="evenodd" fill="#FFFFFF" d="M654.184,205.716c1.935,4.401,4.576,8.663,5.478,13.266
		c0.4,2.04-2.722,4.769-4.246,7.186c-2.885-2.892-7.145-5.343-8.251-8.803c-1.016-3.167,1.376-7.425,2.266-11.202
		C651.015,206.015,652.599,205.865,654.184,205.716z"/>
</g>
<g>
	<path fill-rule="evenodd" clip-rule="evenodd" d="M821.271,637.376c-2.313-1.294-5.361-2.441-6.483-4.514
		c-7.883-14.562-21.149-16.347-35.047-13.811c-14.623,2.669-29.158,6.521-43.224,11.345c-14.36,4.924-27.695,2.931-40.217-3.815
		c-24.698-13.307-48.378-28.589-73.472-41.052c-22.583-11.218-20.246-30.293-14.88-45.937c4.227-12.318,9.013-24.444,13.315-36.738
		c8.898-25.413,13.493-52.644,32.055-73.901c22.372-25.622,39.776-54.135,50.687-86.552c2.016-5.989,5.644-11.749,9.651-16.706
		c25.391-31.399,50.63-63.054,57.008-104.488c2.884-18.743,9.806-39.138-8.278-55.087c-14.891-13.134-32.667-19.509-52.179-21.324
		c-19.725-1.837-37.823-3.994-47.003-26.891c-3.432-8.559-16.003-16.67-25.764-18.814c-21.32-4.683-39.77,3.012-55.302,19.621
		c-9.69,10.362-22.357,18.055-34.128,26.319c-9.457,6.64-20.364,11.379-29.22,18.671c-14.403,11.863-27.275,25.571-41.487,37.686
		c-20.415,17.401-39.396,38.068-62.731,50.066c-30.889,15.883-65.309,24.979-98.364,36.551
		c-32.125,11.246-66.149,19.195-91.604,43.395c-16.168,15.371-29.427,33.799-42.169,48.724c-11.161,3.016-20.944,4.723-30.012,8.264
		C92.465,411.806,65.74,468.559,27.914,514.03c-7.245,8.71-4.653,18.984,2.844,29.365c9.11,12.614,20.039,20.076,34.865,22.437
		c0,7.96-0.341,14.972,0.087,21.935c0.535,8.67-1.689,14.438-8.431,21.511c-6.745,7.076-10.881,20.271-10.016,30.25
		c2.183,25.168,18.854,43.237,39.698,54.582c44.639,24.296,89.529,48.782,139.154,61.859
		c52.542,13.849,105.188,23.437,156.379-5.831c4.109-2.349,10.451-3.641,14.764-2.28c15.519,4.899,30.881,10.566,45.656,17.35
		c3.135,1.439,5.757,9.381,4.739,13.326c-1.94,7.523-2.16,14.327,5.819,15.571c3.932,0.613,10.759-4.729,13.147-9.088
		c8.431-15.393,1.472-30.175-17.772-40.425c-5.257-2.801-10.578-5.483-15.869-8.221c15.119-3.604,30.06-8.211,42.642-4.598
		c10.969,3.149,18.836,12.2,27.255-2.705c0.916-1.62,6.185-1.261,9.375-1.021c7.876,0.593,16.251,0.234,23.421,2.929
		c6.713,2.521,11.978,8.712,18.186,12.826c3.856,2.556,8.444,6.052,12.394,5.694c2.559-0.231,6.073-6.472,6.532-10.332
		c1.468-12.333-12.521-27.715-28.364-30.147c-14.214-2.184-28.757-2.165-43.129-3.422c-3.79-0.331-7.637-1.4-11.186-2.813
		c-7.307-2.907-14.248-8.329-21.669-8.98c-11.455-1.009-23.181,1.199-34.801,1.891c-12.626,0.751-25.263,1.328-37.895,1.981
		c-0.586-1.9-1.172-3.803-1.758-5.703c5.057-2.927,9.787-6.889,15.225-8.615c43.239-13.727,80.398-37.123,112.048-69.429
		c2.277-2.325,7.649-11.094,10.423-15.396c3.024,13.446,3.189,24.841,9.622,40.197c3.126,7.462,7.396,18.108,13.944,20.899
		c29.509,12.575,59.757,23.563,90.191,33.775c29.788,9.993,60.098,14.181,90.375,0.678c5.504-2.454,11.421-4.726,17.334-5.38
		c15.2-1.684,30.089-2.825,44.751,5.5c4.972,2.822,14.035-1.563,21.228-2.656c-2.134-6.045-3.612-12.446-6.63-18.015
		c-2.077-3.833-6.287-6.509-9.542-9.704c0.819-1.281,1.641-2.563,2.46-3.845c10.71,3.818,21.73,6.954,32.032,11.661
		c9.041,4.13,15.133,2.52,19.865-5.862c0-2.816,0-5.633,0-8.449C845.29,650.688,833.255,644.076,821.271,637.376z M801.168,631.121
		c-16.175,1.101-32.35,2.199-48.526,3.298C768.441,627.817,784.148,619.88,801.168,631.121z M699.361,631.432
		c4.802,6.442,10.713,10.849,10.225,14.371c-1.568,11.331-5.061,22.616-17.66,30.076
		C694.385,661.177,696.471,648.709,699.361,631.432z M659.06,640.63c-5.403,7.973-6.055,21.595-19.233,21.14
		c2.713-18.045,5.432-36.133,8.109-53.944C666.186,612.511,671.067,622.912,659.06,640.63z M615.596,500.784
		c-1.198,0.076-2.396,0.151-3.596,0.228c-6.818-20.22,6.437-44.868-15.204-63.345c6.718-2.798,11.536-4.804,18.8-7.83
		C615.596,454.814,615.596,477.799,615.596,500.784z M206.555,360.027c3.848-5.812,8.619-11.535,18.623-7.578
		c4.838,1.913,12.393-1.878,18.326-4.125c13.364-5.057,26.14-11.954,39.798-15.858c13.189-3.77,20.65-11.742,25.513-23.692
		c4.203-10.329,35.891-28.712,46.669-27.4c0.913,0.112,2.146,0.232,2.631,0.832c12.924,15.957,24.648,4.012,36.93-1.239
		c11.146-4.766,22.779-8.39,33.972-13.057c11.217-4.676,20.422-11.074,21.073-25.242c0.19-4.16,3.015-9.117,6.164-12.077
		c23.805-22.368,47.838-44.503,72.188-66.277c5.104-4.564,12.13-6.904,17.722-11.016c15.659-11.518,31.678-22.68,46.356-35.368
		c19.241-16.637,46.205-17.894,61.588-1.28c1.868,2.018,4.22,4.182,4.848,6.659c5.511,21.72,22.348,24.633,41.14,27.756
		c17.554,2.918,34.498,9.835,51.472,15.681c3.961,1.364,6.962,5.517,13.73,11.156c-7.949,1.187-13.16,3.704-15.785,2.069
		c-14.301-8.905-25.44-1.499-35.782,6.581c-11.92,9.313-21.437,12.635-37.092,4.149c-31.972-17.33-65.254-1.103-80.951,36.184
		c-6.479,15.389-12.514,30.971-19.235,46.252c-2.204,5.013-4.936,10.701-9.118,13.795c-40.01,29.609-64.417,70.971-86.352,114.068
		c-13.048,25.635-32.99,42.19-59.952,51.396c-32.516,11.104-57.97,31.417-76.265,60.608c-1.167,1.861-2.881,3.38-5.807,6.741
		c-4.054-16.482-7.83-31.137-11.228-45.876c-2.342-10.16-9.868-14.996-19.816-10.718c-20.669,8.891-39.694,19.539-42.293,45.694
		c-0.527,5.301-3.317,10.882-6.486,15.319c-10.102,14.152-18.067,28.613-11.855,46.461c-27.058,3.277-53.019,6.422-78.98,9.566
		c0.119,1.449,0.238,2.897,0.358,4.347c29.445-2.71,58.89-5.421,90.447-8.327c-1.089,9.366-1.671,14.366-2.444,21.009
		c-10.486-1.095-20.875-2.298-31.288-3.247c-43.594-3.973-86.69,0.258-129.874,6.412c-23.528,3.353-31.565-6.496-22.511-28.762
		c7.231-17.781,11.634-39.365,33.688-47.375c1.228-0.446,2.342-1.635,3.149-2.741c16.722-22.856,33.454-45.709,49.983-68.706
		c1.847-2.569,3.451-5.988,3.526-9.054C164.193,408.817,189.148,386.317,206.555,360.027z M762.918,188.769
		c-6.681,5.616-13.592,12.382-21.498,17.656c-3.816,2.547-9.541,3.277-14.338,3.099c-10.122-0.377-20.203-1.894-31.021-3.018
		C715.009,187.348,736.664,177.112,762.918,188.769z M613.528,210.694c8.57-13.892,22.049-18.898,40.155-19.784
		C638.573,198.354,626.031,204.534,613.528,210.694z M654.184,205.716c1.935,4.401,4.576,8.663,5.478,13.266
		c0.4,2.04-2.722,4.769-4.246,7.186c-2.885-2.892-7.145-5.343-8.251-8.803c-1.016-3.167,1.376-7.425,2.266-11.202
		C651.015,206.015,652.599,205.865,654.184,205.716z M628.797,218.141c2.297,12.31-14.112,25.787,3.776,34.417
		c13.789,6.652,32.8,0.715,39.84-11.053c6.725-11.242,8.628-21.991-5.452-30.445c11.067,1.283,18.053,13.081,15.009,23.962
		c-5.635,20.141-30.921,33.281-51.39,26.704C614.169,256.453,612.909,233.643,628.797,218.141z M30.083,525.516
		c5.095-9.13,9.24-18.977,15.48-27.242c13.486-17.865,28.433-34.622,42.082-52.37c22.974-29.874,52.17-49.855,90.086-57.751
		c-20.289,29.406-31.428,66.11-68.938,81.413c-14.097,5.751-27.03,14.923-39.475,23.939c-7.355,5.329-12.671,13.452-18.993,20.235
		c-4.861,5.216-9.861,10.304-14.799,15.447C33.711,527.963,31.897,526.739,30.083,525.516z M50.781,554.483
		c-6.153-4.593-10.874-11.104-14.946-15.393c22.607-34.978,54.595-55.876,92.313-73.671c-18.277,29.624-34.873,56.615-51.573,83.543
		C69.933,559.671,60.873,562.013,50.781,554.483z M464.702,698.328c5.365-0.68,11.216,2.452,16.842,3.824
		c-0.098,1.896-0.195,3.792-0.293,5.687c-26.338,0-52.675,0-79.014,0c0.011,2.363,0.023,4.726,0.035,7.089
		c12.874,0,25.75-0.073,38.624,0.015c34.013,0.229,68.086-0.493,101.986,1.571c7.807,0.476,15.319,10.283,22.304,16.537
		c1.729,1.548,0.859,5.995-0.355,10.083c-13.002-21.76-34.212-21.228-53.806-20.634c-30.767,0.934-61.421,5.577-92.186,6.507
		c-12.053,0.362-24.186-5.672-36.469-7.607c-6.8-1.071-13.987,0.312-21,0.586c0.061,1.707,0.121,3.412,0.182,5.119
		c29.682-4.184,54.03,11.396,79.928,20.766c10.989,3.976,21.285,11.306,21.43,25.097c0.05,4.788-3.196,9.61-6.002,13.926
		c-3.038-25.885-7.98-27.714-34.74-38.177c-24.176-9.454-44.086-5.79-65.162,5.919c-23.893,13.276-50.017,8.572-75.213,6.288
		c-51.497-4.669-98.601-24.08-144.474-46.665c-15.066-7.418-29.754-15.604-44.624-23.424c-16.428-8.639-27.517-22.327-35.729-38.49
		c-11.462-22.557-1.545-40.814,23.208-43.824c18.342-2.23,36.626-4.951,54.936-7.452c0.935,1.448,1.869,2.895,2.803,4.342
		c-7.422,6.024-14.029,13.792-22.431,17.729c-19.943,9.34-26.46,25.886-15.402,44.236c0.876,1.455,2.465,2.815,4.035,3.464
		c24.527,10.137,49.1,20.164,73.676,30.182c29.579,12.057,59.673,21.615,92.285,17.965c17.605-1.969,35.136-4.728,52.778-6.218
		c13.765-1.162,27.647-0.924,41.479-1.287c3.232-0.084,6.516,0.278,9.689-0.179C404.248,706.955,434.414,702.165,464.702,698.328z
		 M380.689,701.562c-3.627,2.449-8.675,3.455-13.181,3.834c-27.375,2.307-54.767,4.459-82.181,6.243
		c-31.208,2.029-61.913,3.282-91.658-11.353c-22.439-11.04-46.881-17.992-70.359-26.957c-3.39-1.295-6.367-3.673-10.012-5.832
		c9.825-12.646,17.817-26.252,29.076-36.135c6.403-5.621,18.054-6.443,27.512-7.148c17.426-1.3,33.517-3.688,42.645-21.294
		c1.007-1.943,4.474-4.072,6.494-3.804c18.866,2.494,37.805,4.804,56.439,8.567c14.812,2.993,19.075,13.767,8.167,24.259
		c-16.584,15.949-15.216,36.127-17.351,55.586c-0.487,4.451,4.589,13.642,6.46,13.472c6.315-0.566,12.339-4.363,16.663-6.168
		c9.157-1.138,18.316,0.081,24.648-3.584c11.085-6.416,8.746-18.363,6.661-29.13c-0.532-2.748-1.773-5.457-1.785-8.188
		c-0.035-7.484,0.41-14.972,0.664-22.459c6.35,0.781,12.694,1.608,19.055,2.286c0.778,0.084,1.641-0.623,3.94-1.573
		c-4.813-4.197-9.121-7.953-13.429-11.71c4.271-6.825,8.526-13.613,13.423-21.425c23.548,8.143,41.284,23.976,53.07,45.88
		C402.957,658.503,393.064,693.203,380.689,701.562z M848.082,668.335c-36.847-22.162-74.467-11.547-111.967-6.074
		c13.925,1.219,27.927,0.516,41.825,1.405c15.693,1.003,26.961,9.438,33.768,24.251c-4.885,0.828-9.479,0.863-13.11-0.986
		c-20.768-10.57-41.379-8.772-62.186-0.377c-20.044,8.088-41.08,12.721-62.104,7.012c-28.759-7.808-56.709-18.548-85.32-26.955
		c-23.133-6.795-40.091-16.532-46.401-43.462c-9.723-41.491-21.239-82.323-17.422-125.515c0.717-8.098,2.102-16.137,3.179-24.202
		c-3.691,0.961-5.3,2.562-5.887,4.475c-4.767,15.55-17.685,33.474-31.854,42.293c9.866-1.382,17.6-2.466,25.667-3.596
		c1.58,11.5,2.321,21.312,4.353,30.849c3.412,16.017,6.8,32.045,10.369,48.029c-33.896,35.959-79.299,70.666-131.164,82.878
		c14.954-38.339-11.506-55.032-33.018-75.152c11.907-7.116,22.789-13.618,33.67-20.121c-0.758-1.281-1.516-2.563-2.272-3.845
		c-5.933,3.259-11.621,7.124-17.857,9.633c-8.397,3.379-18.226,9.625-25.655,7.712c-17.671-4.555-34.294-13.182-49.816-19.538
		c15.542-21.565,31.816-43.093,46.938-65.401c17.426-25.71,40.469-44.517,69.494-54.15c34.135-11.33,54.854-34.755,70.231-65.759
		c14.567-29.372,29.921-59.45,56.602-79.405c26.961-20.167,40.8-47.168,51.469-77.235c1.222-3.438,3.311-6.57,4.997-9.845
		c1.529,4.547-0.416,8.145-0.086,11.522c0.957,9.782-0.635,22.917,4.98,28.57c18.007,18.133,50.075,15.571,67.794-2.953
		c11.8-12.338,18.447-26.883,16.175-48.232c10.827,0.575,20.508,0.497,30.011,1.752c10.483,1.386,19.26,0.099,26.544-8.593
		c3.105-3.707,8.148-5.79,14.12-9.836c0.941,25.861-4.172,47.748-18.609,64.793c-20.763,24.513-43.957,47.039-66.945,69.564
		c-9.807,9.61-21.715,17.081-32.667,25.524c0.958,1.27,1.917,2.538,2.874,3.807c12.21-8.894,24.855-17.256,36.503-26.832
		c11.506-9.46,22.002-20.148,30.654-28.177c-8.033,16.712-16.767,35.474-26.041,53.962c-5.857,11.678-12.121,23.196-18.913,34.351
		c-15.393,25.279-40.312,44.605-47.096,75.312c-0.037,0.17-1.524,0.021-3.557,0.021c1.037-8.956,3.116-17.711,2.685-26.341
		c-0.297-5.959-2.788-15.395-6.591-16.726c-5.312-1.858-13.297,1.375-19.09,4.421c-3.297,1.734-4.507,7.434-6.641,11.314
		c-15.027-9.983-51.604-11.99-62.174-2.085c11.602,0,22.152-0.004,32.702,0.001c22.43,0.013,32.609,8.521,34.082,31.354
		c1.805,27.962,2.19,56.02,2.947,84.042c0.381,14.125,3.695,25.417,17.634,33.277c25.849,14.575,31.473,37.82,17.913,63.977
		c-1.887,3.64-1.729,8.34-2.517,12.55c4.719,0.696,10.104,3.13,13.982,1.64c4.611-1.772,8.998-6.292,11.592-10.726
		c6.198-10.599,11.288-21.846,16.83-32.84c18.179,6.11,22.631,20.142,13.267,41.438c-2.435,5.538-9.154,13.209,0.833,15.882
		c4.991,1.337,14.474-3.537,17.695-8.402c6.223-9.403,9.446-20.792,13.48-30.33c10.969,0,22.362,1.767,32.986-0.341
		c28.375-5.629,55.813-4.931,82.063,7.885c6.002,2.931,10.751,8.429,16.076,12.746C849.431,664.475,848.757,666.404,848.082,668.335
		z"/>
	<path fill-rule="evenodd" clip-rule="evenodd" d="M598.104,270.25c13.588,4.851,25.033,8.937,39.417,14.072
		c-1.488,6.35-3.617,14.989-5.526,23.679c-4.817,21.928-4.773,21.929,14.655,31.102c1.238,0.584,2.356,1.422,3.27,1.982
		c-9.569,15.828-18.782,17.453-84.989,15.452c0.99,5.52,1.913,10.613,2.816,15.708c1.771,9.987,4.096,19.92,5.147,29.983
		c1.201,11.471-5.323,16.657-16.314,18.112c-24.716,3.273-43.055-5.751-42.414-22.248c0.394-10.115,0.543-21.803,5.521-29.873
		c12.782-20.725,27.718-40.2,42.745-59.429c8.49-10.865,18.886-20.236,28.368-30.331C593.897,275.162,596.818,271.7,598.104,270.25z
		"/>
	<path fill-rule="evenodd" clip-rule="evenodd" d="M378.269,538.64c0.201-19.153,12.763-37.729,30.854-44.307
		c15.738-5.721,31.688-10.896,47.698-15.815c14.442-4.438,24.222,0.276,26.623,16.354c5.508,36.884-0.747,51.637-34.327,68.351
		c-5.433,2.704-10.914,5.315-16.269,8.169C403.094,587.252,377.918,572.164,378.269,538.64z M418.814,571.69
		c9.817-4.651,23.187-10.049,35.636-17.079c25.716-14.522,31.359-29.275,23.673-57.924c-3.716-13.854-9.487-17.213-23.21-12.847
		c-14.61,4.647-29.297,9.166-43.57,14.723c-14.299,5.565-23.843,16.297-27.338,31.399
		C378.651,553.106,392.785,571.835,418.814,571.69z"/>
	<path fill-rule="evenodd" clip-rule="evenodd" d="M206.499,469.085c-5.359,21.572-9.333,44.623-16.965,66.393
		c-8.42,24.019-31.985,29.715-53.389,36.275c-7.363,2.255-14.893-9.339-12.094-18.997c1.896-6.548,5.871-12.546,9.258-18.597
		c10.418-18.613,20.507-37.44,31.727-55.561c5.652-9.131,12.02-19.188,20.683-24.737
		C196.629,446.869,206.963,455.103,206.499,469.085z"/>
	<path fill-rule="evenodd" clip-rule="evenodd" d="M321.495,434.689c-16.615-3.201-31.821-5.352-46.563-9.257
		c-9.02-2.39-9.653-14.113-0.576-19.688c26.514-16.287,52.685-33.933,85.773-33.871c3.673,0.007,7.418-1.868,11.009-1.539
		c6.263,0.575,16.847,0.693,17.837,3.629c3.397,10.063,8.27,23.157-3.943,30.484c-17.849,10.707-36.888,19.448-55.562,28.741
		C326.679,434.578,323.113,434.41,321.495,434.689z"/>
	<path fill-rule="evenodd" clip-rule="evenodd" d="M442.233,369.741c-6.272-5.35-14.47-9.483-17.52-16.018
		c-1.822-3.906,2.837-13.493,7.329-17.202c15.097-12.467,30.547-25.113,47.72-34.16c6.79-3.576,18.468,2.127,27.92,3.606
		c-2.778,7.312-3.683,16.478-8.712,21.564c-11.75,11.884-25.288,22.053-38.509,32.395
		C455.845,363.539,450.033,365.622,442.233,369.741z"/>
</g>
<g>
	<path fill-rule="evenodd" clip-rule="evenodd" fill="#8DC63F" d="M282.587,575.129c-3.921,0-7.211,0.231-10.458-0.038
		c-20.485-1.703-29.458-18.169-17.947-35.336c8.708-12.985,16.447-25.482,18-41.648c0.915-9.518,28.796-31.443,38.812-31.634
		c3.43-0.066,9.195,2.947,10.019,5.71c4.068,13.621,7.294,27.543,9.956,41.524c4.292,22.556-10.828,36.12-24.559,49.97
		C299.777,570.367,294.844,581.465,282.587,575.129z"/>
	<path fill-rule="evenodd" clip-rule="evenodd" fill="#8DC63F" d="M278.328,699.508c-3.925-4.359-6.868-6.272-6.615-7.555
		c3.237-16.384-2.083-34.28,10.142-49.215c6.461-7.893,10.496-17.772,16.139-27.654c4.237,1.61,11.053,4.2,17.868,6.79
		c-1.292,0.419-2.583,0.839-3.873,1.258c1.073,12.27,2.278,24.527,3.167,36.809c0.499,6.902,2.451,14.659,0.034,20.493
		c-1.759,4.244-11.089,9.56-14.449,8.161C289.856,684.064,282.884,685.563,278.328,699.508z"/>
	<path fill-rule="evenodd" clip-rule="evenodd" fill="#8DC63F" d="M207.548,602.45c-6.874,13.18-20.138,17.515-33.319,16.897
		c-23.188-1.087-39.429,6.434-50.154,27.615c-3.535,6.98-11.632,11.65-17.636,17.387c-10.279-22.551-8.167-27.177,14.105-37.211
		c5.935-2.674,10.403-8.6,15.548-13.03c5.45-4.689,10.414-12.528,16.449-13.465c17.605-2.731,35.639-2.705,53.506-3.761
		C206.547,598.738,207.047,600.596,207.548,602.45z"/>
	<path fill-rule="evenodd" clip-rule="evenodd" fill="#8DC63F" d="M272.414,578.434c18.237,4.103,34.938,7.693,51.546,11.677
		c6.805,1.631,13.811,5.589,9.186,13.293c-3.154,5.251-11.495,11.793-16.209,10.894c-15.783-3.006-31.238-8.452-46.217-14.462
		c-3.745-1.502-6.515-8.447-7.184-13.247C263.228,584.389,269.09,581.329,272.414,578.434z"/>
	<path fill-rule="evenodd" clip-rule="evenodd" fill="#8DC63F" d="M224.984,348.889c5.938-21.019,39.515-39.896,78.557-48.789
		c-0.82,17.362-7.157,23.819-22.658,28.03c-12.781,3.472-24.812,9.66-37.255,14.437
		C237.506,344.917,231.205,346.795,224.984,348.889z"/>
	<path fill-rule="evenodd" clip-rule="evenodd" fill="#8DC63F" d="M762.918,188.769c-6.681,5.616-13.592,12.382-21.498,17.656
		c-3.816,2.547-9.541,3.277-14.338,3.099c-10.122-0.377-20.203-1.894-31.021-3.018C715.009,187.348,736.664,177.112,762.918,188.769
		z"/>
	<path fill-rule="evenodd" clip-rule="evenodd" fill="#8DC63F" d="M639.826,661.77c2.713-18.045,5.432-36.133,8.109-53.944
		c18.25,4.686,23.132,15.087,11.124,32.805C653.656,648.603,653.005,662.225,639.826,661.77z"/>
	<path fill-rule="evenodd" clip-rule="evenodd" fill="#8DC63F" d="M442.194,246.971c-1.69,9.679-31.152,27.573-65.563,37.089
		c-3.264,0.902-7.546-1.876-14.881-3.935C391.597,267.823,417.444,257.17,442.194,246.971z"/>
	<path fill-rule="evenodd" clip-rule="evenodd" fill="#8DC63F" d="M612,501.012c-6.818-20.22,6.437-44.868-15.204-63.345
		c6.718-2.798,11.536-4.804,18.8-7.83c0,24.977,0,47.961,0,70.947C614.397,500.86,613.199,500.936,612,501.012z"/>
	<path fill-rule="evenodd" clip-rule="evenodd" fill="#8DC63F" d="M123.988,486.134c10.536-16.33,21.072-32.662,31.608-48.992
		C154.415,459.501,143.01,475.272,123.988,486.134z"/>
	<path fill-rule="evenodd" clip-rule="evenodd" fill="#8DC63F" d="M691.926,675.879c2.459-14.702,4.545-27.17,7.436-44.447
		c4.802,6.442,10.713,10.849,10.225,14.371C708.018,657.134,704.525,668.419,691.926,675.879z"/>
	<path fill-rule="evenodd" clip-rule="evenodd" fill="#8DC63F" d="M599.261,278.276c11.532,4.149,21.362,7.687,31.103,11.19
		c0.86,18.084-20.825,39.279,7.102,58.545c-13.137,0.899-26.27,2.433-39.409,2.495c-10.052,0.048-20.096-2.235-30.174-2.58
		c-6.802-0.232-9.723,12.041-6.787,23.442c2.603,10.107,5.493,20.441,5.811,30.749c0.315,10.174-5.778,15.271-16.8,11.729
		c-3.457-1.11-7.297-1.506-10.946-1.447c-15.038,0.245-19.166-3.426-18.612-18.551c0.625-17.023,5.42-32.003,15.995-46.505
		c12.794-17.545,26.071-33.531,43.886-46.268C588.401,295.374,593.431,285.555,599.261,278.276z"/>
	<path fill-rule="evenodd" clip-rule="evenodd" fill="#8DC63F" d="M418.814,571.69c-26.029,0.145-40.163-18.584-34.809-41.728
		c3.495-15.103,13.039-25.834,27.338-31.399c14.273-5.557,28.959-10.075,43.57-14.723c13.723-4.366,19.494-1.008,23.21,12.847
		c7.687,28.648,2.043,43.401-23.673,57.924C442.001,561.642,428.631,567.039,418.814,571.69z"/>
	<path fill-rule="evenodd" clip-rule="evenodd" fill="#8DC63F" d="M128.732,568.126c1.589-9.78,0.337-18.761,4.245-23.277
		c18.412-21.282,28.274-46.956,39.858-71.813c0.198-0.424,0.431-0.838,0.699-1.22c5.2-7.416,8.997-18.657,20.976-13.625
		c11.869,4.986,5.32,14.958,3.624,23.212c-2.709,13.183-6.036,26.271-8.021,39.561c-2.731,18.297-15.468,28.572-29.564,36.986
		C152.883,562.523,143.18,563.684,128.732,568.126z"/>
	<path fill-rule="evenodd" clip-rule="evenodd" fill="#8DC63F" d="M384.74,376.143c4.583,22.362,4.116,22.361-15.898,31.244
		c-11.359,5.041-21.306,13.708-32.945,17.518c-8.987,2.94-19.735,1.878-29.488,0.752c-11.239-1.298-22.243-4.624-33.575-7.118
		C286.954,394.877,341.595,372.296,384.74,376.143z"/>
	<path fill-rule="evenodd" clip-rule="evenodd" fill="#8DC63F" d="M444.169,364.542c-5.668-4.729-11.598-7.89-14.418-12.828
		c-1.298-2.274,2.431-9.356,5.708-11.97c14.148-11.294,28.304-22.916,43.923-31.852c5.364-3.069,15.008,1.341,22.697,2.334
		c-3.254,5.508-5.562,11.971-9.96,16.322c-8.851,8.758-18.688,16.556-28.42,24.373C458.061,355.449,451.832,359.242,444.169,364.542
		z"/>
</g>
</svg>
